{
  "accessors": [
    {
      "bufferView": 2,
      "componentType": 5126,
      "count": 1120,
      "max": [
        0.006000000052154064,
        0.011162690818309784,
        0.005890644155442715
      ],
      "min": [
        -0.006000000052154064,
        0.0,
        -0.0059022968634963036
      ],
      "type": "VEC3"
    },
    {
      "bufferView": 2,
      "byteOffset": 13440,
      "componentType": 5126,
      "count": 1120,
      "max": [
        1.0,
        1.0,
        1.0
      ],
      "min": [
        -1.0,
        -1.0,
        -1.0
      ],
      "type": "VEC3"
    },
    {
      "bufferView": 1,
      "componentType": 5126,
      "count": 1120,
      "max": [
        1.0,
        1.0
      ],
      "min": [
        0.0,
        0.021312177181243896
      ],
      "type": "VEC2"
    },
    {
      "bufferView": 1,
      "byteOffset": 8960,
      "componentType": 5126,
      "count": 1120,
      "max": [
        1.0,
        1.0
      ],
      "min": [
        0.0,
        0.021312177181243896
      ],
      "type": "VEC2"
    },
    {
      "bufferView": 1,
      "byteOffset": 17920,
      "componentType": 5126,
      "count": 1120,
      "max": [
        1.0,
        1.0
      ],
      "min": [
        0.0,
        0.021312177181243896
      ],
      "type": "VEC2"
    },
    {
      "bufferView": 0,
      "componentType": 5125,
      "count": 3636,
      "type": "SCALAR"
    },
    {
      "bufferView": 2,
      "byteOffset": 26880,
      "componentType": 5126,
      "count": 110,
      "max": [
        -0.0025777651462703943,
        0.00437342980876565,
        0.0015720746014267206
      ],
      "min": [
        -0.005148096941411495,
        0.004124060273170471,
        -0.0009982571937143803
      ],
      "type": "VEC3"
    },
    {
      "bufferView": 2,
      "byteOffset": 28200,
      "componentType": 5126,
      "count": 110,
      "max": [
        0.9644636511802673,
        0.9707784056663513,
        0.9968810677528381
      ],
      "min": [
        -0.9644638299942017,
        -0.35715603828430176,
        -0.9968808889389038
      ],
      "type": "VEC3"
    },
    {
      "bufferView": 1,
      "byteOffset": 26880,
      "componentType": 5126,
      "count": 110,
      "max": [
        0.9809719920158386,
        0.29088467359542847
      ],
      "min": [
        0.8527783155441284,
        0.02162611484527588
      ],
      "type": "VEC2"
    },
    {
      "bufferView": 1,
      "byteOffset": 27760,
      "componentType": 5126,
      "count": 110,
      "max": [
        0.9809719920158386,
        0.29088467359542847
      ],
      "min": [
        0.8527783155441284,
        0.02162611484527588
      ],
      "type": "VEC2"
    },
    {
      "bufferView": 1,
      "byteOffset": 28640,
      "componentType": 5126,
      "count": 110,
      "max": [
        0.9809719920158386,
        0.29088467359542847
      ],
      "min": [
        0.8527783155441284,
        0.02162611484527588
      ],
      "type": "VEC2"
    },
    {
      "bufferView": 0,
      "byteOffset": 14544,
      "componentType": 5125,
      "count": 210,
      "type": "SCALAR"
    },
    {
      "bufferView": 2,
      "byteOffset": 29520,
      "componentType": 5126,
      "count": 110,
      "max": [
        -0.0025777651462703943,
        0.00437342980876565,
        -0.002464423654600978
      ],
      "min": [
        -0.005148096941411495,
        0.004124060273170471,
        -0.005034755449742079
      ],
      "type": "VEC3"
    },
    {
      "bufferView": 2,
      "byteOffset": 30840,
      "componentType": 5126,
      "count": 110,
      "max": [
        0.9644636511802673,
        0.9707784056663513,
        0.9968808889389038
      ],
      "min": [
        -0.9644638299942017,
        -0.35715603828430176,
        -0.9968810677528381
      ],
      "type": "VEC3"
    },
    {
      "bufferView": 1,
      "byteOffset": 29520,
      "componentType": 5126,
      "count": 110,
      "max": [
        0.9656607508659363,
        0.22609597444534302
      ],
      "min": [
        0.8512635231018066,
        0.08197027444839478
      ],
      "type": "VEC2"
    },
    {
      "bufferView": 1,
      "byteOffset": 30400,
      "componentType": 5126,
      "count": 110,
      "max": [
        0.9656607508659363,
        0.22609597444534302
      ],
      "min": [
        0.8512635231018066,
        0.08197027444839478
      ],
      "type": "VEC2"
    },
    {
      "bufferView": 1,
      "byteOffset": 31280,
      "componentType": 5126,
      "count": 110,
      "max": [
        0.9656607508659363,
        0.22609597444534302
      ],
      "min": [
        0.8512635231018066,
        0.08197027444839478
      ],
      "type": "VEC2"
    },
    {
      "bufferView": 0,
      "byteOffset": 15384,
      "componentType": 5125,
      "count": 210,
      "type": "SCALAR"
    },
    {
      "bufferView": 3,
      "componentType": 5126,
      "count": 240,
      "max": [
        9.958333015441895
      ],
      "min": [
        0.0
      ],
      "type": "SCALAR"
    },
    {
      "bufferView": 5,
      "componentType": 5126,
      "count": 240,
      "max": [
        -0.0,
        0.9999823570251465,
        0.0,
        1.0
      ],
      "min": [
        -0.0,
        -0.6982499957084656,
        0.0,
        -0.702127993106842
      ],
      "type": "VEC4"
    },
    {
      "bufferView": 3,
      "byteOffset": 960,
      "componentType": 5126,
      "count": 32,
      "max": [
        9.958333015441895
      ],
      "min": [
        0.0
      ],
      "type": "SCALAR"
    },
    {
      "bufferView": 4,
      "componentType": 5126,
      "count": 32,
      "max": [
        4.3161227949894965e-05,
        -7.670750346733257e-05,
        0.004193041939288378
      ],
      "min": [
        -0.007755025289952755,
        -7.670750346733257e-05,
        -0.003595087444409728
      ],
      "type": "VEC3"
    },
    {
      "bufferView": 3,
      "byteOffset": 1088,
      "componentType": 5126,
      "count": 240,
      "max": [
        9.958333015441895
      ],
      "min": [
        0.0
      ],
      "type": "SCALAR"
    },
    {
      "bufferView": 5,
      "byteOffset": 3840,
      "componentType": 5126,
      "count": 240,
      "max": [
        -0.0,
        0.9999823570251465,
        0.0,
        1.0
      ],
      "min": [
        -0.0,
        -0.6982499957084656,
        0.0,
        -0.702127993106842
      ],
      "type": "VEC4"
    },
    {
      "bufferView": 3,
      "byteOffset": 2048,
      "componentType": 5126,
      "count": 42,
      "max": [
        9.958333015441895
      ],
      "min": [
        0.0
      ],
      "type": "SCALAR"
    },
    {
      "bufferView": 4,
      "byteOffset": 384,
      "componentType": 5126,
      "count": 42,
      "max": [
        0.0015201823553070426,
        -4.2162271711276844e-05,
        0.001631606137380004
      ],
      "min": [
        -0.009239098988473415,
        -4.2162271711276844e-05,
        -0.00911497138440609
      ],
      "type": "VEC3"
    }
  ],
  "animations": [
    {
      "channels": [
        {
          "sampler": 0,
          "target": {
            "node": 6,
            "path": "rotation"
          }
        },
        {
          "sampler": 1,
          "target": {
            "node": 6,
            "path": "translation"
          }
        },
        {
          "sampler": 2,
          "target": {
            "node": 8,
            "path": "rotation"
          }
        },
        {
          "sampler": 3,
          "target": {
            "node": 8,
            "path": "translation"
          }
        }
      ],
      "name": "Animation",
      "samplers": [
        {
          "input": 18,
          "interpolation": "LINEAR",
          "output": 19
        },
        {
          "input": 20,
          "interpolation": "LINEAR",
          "output": 21
        },
        {
          "input": 22,
          "interpolation": "LINEAR",
          "output": 23
        },
        {
          "input": 24,
          "interpolation": "LINEAR",
          "output": 25
        }
      ]
    }
  ],
  "asset": {
    "extras": {
      "author": "shaun.in.3d1 (https://sketchfab.com/shaun.in.3d1)",
      "license": "SKETCHFAB Standard (https://sketchfab.com/licenses)",
      "source": "https://sketchfab.com/3d-models/hydro-power-dam-e46fcc415d6f4ff4b1b9049311a53f56",
      "title": "Hydro Power Dam"
    },
    "generator": "Sketchfab-16.65.0",
    "version": "2.0"
  },
  "bufferViews": [
    {
      "buffer": 0,
      "byteLength": 16224,
      "name": "floatBufferViews",
      "target": 34963
    },
    {
      "buffer": 0,
      "byteLength": 32160,
      "byteOffset": 16224,
      "byteStride": 8,
      "name": "floatBufferViews",
      "target": 34962
    },
    {
      "buffer": 0,
      "byteLength": 32160,
      "byteOffset": 48384,
      "byteStride": 12,
      "name": "floatBufferViews",
      "target": 34962
    },
    {
      "buffer": 0,
      "byteLength": 2216,
      "byteOffset": 80544,
      "name": "floatBufferViews"
    },
    {
      "buffer": 0,
      "byteLength": 888,
      "byteOffset": 82760,
      "byteStride": 12,
      "name": "floatBufferViews"
    },
    {
      "buffer": 0,
      "byteLength": 7680,
      "byteOffset": 83648,
      "byteStride": 16,
      "name": "floatBufferViews"
    }
  ],
  "buffers": [
    {
      "byteLength": 91328,
      "uri": "scene.bin"
    }
  ],
  "images": [
    {
      "uri": "textures/aiStandardSurface1_baseColor.png"
    },
    {
      "uri": "textures/aiStandardSurface1_metallicRoughness.png"
    }
  ],
  "materials": [
    {
      "name": "aiStandardSurface1",
      "pbrMetallicRoughness": {
        "baseColorTexture": {
          "index": 0
        },
        "metallicRoughnessTexture": {
          "index": 1
        }
      }
    }
  ],
  "meshes": [
    {
      "name": "Object_0",
      "primitives": [
        {
          "attributes": {
            "NORMAL": 1,
            "POSITION": 0,
            "TEXCOORD_0": 2,
            "TEXCOORD_1": 3,
            "TEXCOORD_2": 4
          },
          "indices": 5,
          "material": 0,
          "mode": 4
        }
      ]
    },
    {
      "name": "Object_1",
      "primitives": [
        {
          "attributes": {
            "NORMAL": 7,
            "POSITION": 6,
            "TEXCOORD_0": 8,
            "TEXCOORD_1": 9,
            "TEXCOORD_2": 10
          },
          "indices": 11,
          "material": 0,
          "mode": 4
        }
      ]
    },
    {
      "name": "Object_2",
      "primitives": [
        {
          "attributes": {
            "NORMAL": 13,
            "POSITION": 12,
            "TEXCOORD_0": 14,
            "TEXCOORD_1": 15,
            "TEXCOORD_2": 16
          },
          "indices": 17,
          "material": 0,
          "mode": 4
        }
      ]
    }
  ],
  "nodes": [
    {
      "children": [
        1
      ],
      "matrix": [
        1.0,
        0.0,
        0.0,
        0.0,
        0.0,
        2.220446049250313e-16,
        -1.0,
        0.0,
        0.0,
        1.0,
        2.220446049250313e-16,
        0.0,
        0.0,
        0.0,
        0.0,
        1.0
      ],
      "name": "Sketchfab_model"
    },
    {
      "children": [
        2
      ],
      "name": "root"
    },
    {
      "children": [
        3
      ],
      "matrix": [
        1.0,
        0.0,
        0.0,
        0.0,
        0.0,
        2.220446049250313e-16,
        1.0,
        0.0,
        0.0,
        -1.0,
        2.220446049250313e-16,
        0.0,
        0.0,
        0.0,
        0.0,
        1.0
      ],
      "name": "GLTF_SceneRootNode"
    },
    {
      "children": [
        4,
        6,
        8
      ],
      "matrix": [
        0.0,
        0.0,
        -1.0,
        0.0,
        0.0,
        1.0,
        0.0,
        0.0,
        1.0,
        0.0,
        0.0,
        0.0,
        0.0,
        0.0,
        0.0,
        1.0
      ],
      "name": "group1_0"
    },
    {
      "children": [
        5
      ],
      "name": "polySurface3_1"
    },
    {
      "mesh": 0,
      "name": "Object_5"
    },
    {
      "children": [
        7
      ],
      "name": "polySurface26_2",
      "scale": [
        1.0086395740509033,
        1.0086395740509033,
        1.0086395740509033
      ],
      "translation": [
        3.337422458571382e-05,
        -7.670750346733257e-05,
        -2.478779606462922e-06
      ]
    },
    {
      "mesh": 1,
      "name": "Object_7"
    },
    {
      "children": [
        9
      ],
      "name": "polySurface19_3",
      "translation": [
        2.775557396126769e-18,
        -4.2162271711276844e-05,
        2.2204459996194763e-18
      ]
    },
    {
      "mesh": 2,
      "name": "Object_9"
    }
  ],
  "samplers": [
    {
      "magFilter": 9729,
      "minFilter": 9987,
      "wrapS": 10497,
      "wrapT": 10497
    }
  ],
  "scene": 0,
  "scenes": [
    {
      "name": "Sketchfab_Scene",
      "nodes": [
        0
      ]
    }
  ],
  "textures": [
    {
      "sampler": 0,
      "source": 0
    },
    {
      "sampler": 0,
      "source": 1
    }
  ]
}
